<?xml version="1.0" encoding="UTF-8"?>
<svg id="Layer_2" data-name="Layer 2" xmlns="http://www.w3.org/2000/svg" viewBox="0 0 480 480">
  <defs>
    <style>
      .cls-1, .cls-2, .cls-3, .cls-4, .cls-5 {
        stroke-width: 0px;
      }

      .cls-2 {
        fill: #dfdfdf;
      }

      .cls-3 {
        fill: #df1818;
      }

      .cls-4 {
        fill: #fff;
      }

      .cls-5 {
        fill: #ff1c1c;
      }
    </style>
  </defs>
  <g id="Pokéball">
    <g id="Pokéball-2" data-name="Pokéball">
      <g id="Colours">
        <path id="Down" class="cls-4" d="M239.95,318.75c-37.91,0-69.54-26.84-77.04-62.51H36.79c8.91,103.72,95.91,185.09,201.85,185.09s193.03-81.38,201.85-185.09h-123.5c-7.51,35.76-39.13,62.51-77.04,62.51Z"/>
        <path id="Shadow_Down" data-name="Shadow Down" class="cls-2" d="M285,436.07c84.08-19.71,147.99-91.7,155.5-179.84h-49.74c-4.97,79.97-46.92,147.74-105.76,179.84Z"/>
        <path id="Center" class="cls-4" d="M286.4,240h0q-.09,0,0,0c-.09-5.73-1.13-11.17-3-16.24-6.57-17.65-23.55-30.13-43.45-30.13s-36.88,12.58-43.45,30.13c-1.88,5.07-2.91,10.51-2.91,16.24h.09c0,5.73,1.03,11.17,2.91,16.24,6.57,17.65,23.55,30.13,43.45,30.13s36.88-12.58,43.45-30.13c1.88-4.97,2.91-10.51,2.91-16.24h0Z"/>
        <path id="Up" class="cls-5" d="M240.05,161.35c37.91,0,69.54,26.84,77.04,62.51h126.12c-8.91-103.81-95.91-185.19-201.95-185.19S48.33,120.05,39.41,223.76h123.59c7.51-35.67,39.13-62.42,77.04-62.42Z"/>
        <path id="Shadow_Up" data-name="Shadow Up" class="cls-3" d="M390.76,223.76h52.36c-7.7-89.64-73.76-162.66-160-180.77,59.87,31.63,102.57,100.05,107.64,180.77Z"/>
      </g>
      <path id="Line" class="cls-1" d="M241.27,38.67c106.04,0,193.03,81.38,201.85,185.09h-126.12c-7.51-35.67-39.13-62.51-77.04-62.51s-69.54,26.84-77.04,62.51H39.41C48.33,120.05,135.32,38.67,241.27,38.67ZM283.4,223.76c1.88,5.07,2.91,10.51,2.91,16.24h.09c0,5.73-1.03,11.17-2.91,16.24-6.57,17.65-23.55,30.13-43.45,30.13s-36.88-12.58-43.45-30.13c-1.88-5.07-2.91-10.51-2.91-16.24h-.09c0-5.73,1.03-11.17,2.91-16.24,6.57-17.65,23.55-30.13,43.45-30.13s36.88,12.58,43.45,30.13ZM238.64,441.42c-106.04,0-193.03-81.38-201.85-185.09h126.12c7.51,35.67,39.13,62.51,77.04,62.51s69.54-26.84,77.04-62.51h123.59c-8.91,103.62-95.91,185.09-201.95,185.09ZM239.95,0C107.45,0,0,107.47,0,240s107.45,240,239.95,240,240.05-107.38,240.05-240S372.55,0,239.95,0Z"/>
    </g>
  </g>
</svg>